<?xml version="1.0" encoding="UTF-8"?>
<svg width="128pt" height="128pt" version="1.1" viewBox="0 0 128 128" xmlns="http://www.w3.org/2000/svg">
 <path d="m82.316 56.59h-62c-0.96094 0-1.7305-0.76953-1.7305-1.7305s0.76953-1.7305 1.7305-1.7305h62.004c0.96094 0 1.7305 0.76953 1.7305 1.7305s-0.76953 1.7305-1.7305 1.7305z"/>
 <path d="m82.316 64.418h-62c-0.96094 0-1.7305-0.76953-1.7305-1.7305s0.76953-1.7305 1.7305-1.7305h62.004c0.96094 0 1.7305 0.76953 1.7305 1.7305s-0.76953 1.7305-1.7305 1.7305z"/>
 <path d="m61.785 72.254h-41.469c-0.96094 0-1.7305-0.76953-1.7305-1.7305 0-0.96094 0.76953-1.7305 1.7305-1.7305h41.469c0.96094 0 1.7305 0.76953 1.7305 1.7305 0 0.96094-0.76953 1.7305-1.7305 1.7305z"/>
 <path d="m94.746 47.707c-0.73047 0-1.3945-0.21875-1.9688-0.57422v39.141c0 0.85937-0.70312 1.5586-1.5586 1.5586h-11.969c-2.7656 0-5.0195 2.2539-5.0195 5.0195v10.945c0 1.0117-0.78125 1.3711-1.0234 1.4609-0.24609 0.089844-1.0742 0.32031-1.7305-0.44922l-12.93-15.195c-0.96094-1.125-2.3398-1.7656-3.8164-1.7656h-43.293c-0.85938 0-1.5586-0.70312-1.5586-1.5586v-48.895c0-0.85938 0.70312-1.5586 1.5586-1.5586h70.016c-0.39453-0.58984-0.625-1.2969-0.625-2.0508 0-0.5 0.10156-0.97656 0.28125-1.4102h-69.672c-2.7656 0-5.0195 2.2539-5.0195 5.0195v48.871c0 2.7656 2.2539 5.0195 5.0195 5.0195h43.301c0.46094 0 0.88672 0.20312 1.1914 0.55078l12.93 15.207c0.97656 1.1484 2.3711 1.7656 3.8008 1.7656 0.58984 0 1.1797-0.10156 1.7539-0.32031 1.9961-0.73047 3.2734-2.5859 3.2734-4.7109v-10.945c0-0.85938 0.70312-1.5586 1.5586-1.5586h11.969c2.7656 0 5.0195-2.2539 5.0195-5.0195v-38.875c-0.46094 0.19141-0.96094 0.32031-1.4844 0.32031z"/>
 <path d="m96.203 23.129 1.2383 4.1992c0.52344 1.8047 1.9453 3.2148 3.7383 3.7383l4.1992 1.2383c1.4609 0.43359 1.4609 2.4961 0 2.9297l-4.1992 1.2383c-1.8047 0.52344-3.2148 1.9453-3.7383 3.7383l-1.2383 4.1992c-0.43359 1.4609-2.4961 1.4609-2.9297 0l-1.2383-4.1992c-0.52344-1.8047-1.9453-3.2148-3.7383-3.7383l-4.1992-1.2383c-1.4609-0.43359-1.4609-2.4961 0-2.9297l4.1992-1.2383c1.8047-0.52344 3.2148-1.9453 3.7383-3.7383l1.2383-4.1992c0.43359-1.4609 2.4961-1.4609 2.9297 0z"/>
 <path d="m111.96 19.98 0.71484 2.4297c0.30469 1.0352 1.125 1.8555 2.1641 2.1641l2.4297 0.71484c0.84375 0.24609 0.84375 1.4453 0 1.6992l-2.4297 0.71484c-1.0352 0.30469-1.8555 1.125-2.1641 2.1641l-0.71484 2.4297c-0.24609 0.84375-1.4453 0.84375-1.6992 0l-0.71484-2.4297c-0.30469-1.0352-1.125-1.8555-2.1641-2.1641l-2.4297-0.71484c-0.84375-0.24609-0.84375-1.4453 0-1.6992l2.4297-0.71484c1.0352-0.30469 1.8555-1.125 2.1641-2.1641l0.71484-2.4297c0.24609-0.84375 1.4453-0.84375 1.6992 0z"/>
</svg>
